<?xml version="1.0" standalone="no"?>
<!DOCTYPE svg PUBLIC "-//W3C//DTD SVG 20010904//EN"
 "http://www.w3.org/TR/2001/REC-SVG-20010904/DTD/svg10.dtd">
<svg version="1.0" xmlns="http://www.w3.org/2000/svg"
 width="400.000000pt" height="400.000000pt" viewBox="0 0 400.000000 400.000000"
 preserveAspectRatio="xMidYMid meet">
<metadata>
Created by potrace 1.11, written by Peter Selinger 2001-2013
</metadata>
<g transform="translate(0.000000,400.000000) scale(0.100000,-0.100000)"
fill="#000000" stroke="none">
<path d="M1749 2362 c-96 -75 -224 -177 -286 -225 l-112 -88 -105 25 c-218 54
-352 69 -606 70 -181 0 -256 -3 -325 -17 -100 -19 -265 -67 -265 -77 0 -3 6
-14 13 -23 10 -14 18 -14 52 -5 l41 11 326 -221 c179 -122 332 -224 340 -227
9 -4 114 72 275 199 l261 206 88 -20 c338 -73 680 -71 1042 5 l66 13 334 -239
334 -239 273 234 273 235 66 -22 c36 -11 67 -19 70 -16 2 2 6 13 8 23 2 17
-11 24 -85 48 -202 65 -440 98 -701 98 -137 0 -191 -6 -360 -35 l-200 -34
-310 223 c-171 122 -316 225 -322 229 -6 3 -89 -56 -185 -131z m469 -133 c149
-107 268 -197 265 -201 -2 -5 -17 -8 -33 -8 -21 0 -93 45 -275 175 -150 107
-250 173 -258 168 -7 -4 -115 -83 -241 -176 -148 -109 -234 -166 -244 -162
-20 8 -33 -4 244 216 144 114 246 187 256 185 9 -2 138 -91 286 -197z m-69
-79 c194 -137 202 -145 175 -152 -26 -7 -48 6 -208 114 -99 67 -185 121 -191
121 -7 0 -84 -52 -172 -116 -126 -92 -168 -117 -193 -117 -17 0 -30 4 -28 10
6 18 393 298 404 292 6 -4 102 -72 213 -152z m-1236 -68 l38 -7 -70 -43 -70
-43 -83 56 -83 57 115 -7 c63 -4 132 -10 153 -13z m-303 -117 c107 -69 197
-125 201 -125 4 0 79 48 168 106 122 80 164 103 177 96 13 -7 -18 -34 -151
-131 -92 -68 -173 -125 -180 -127 -7 -3 -115 62 -239 144 -125 83 -221 152
-214 155 31 12 54 1 238 -118z m-61 -74 l269 -180 213 155 c117 85 218 154
223 154 51 -1 27 -26 -189 -196 -125 -99 -233 -179 -239 -178 -6 1 -146 93
-311 205 -306 208 -308 209 -242 218 4 1 128 -80 276 -178z m1450 132 l76 -48
-56 -8 c-31 -5 -96 -5 -145 0 l-89 8 65 47 c36 25 67 47 69 47 2 1 38 -20 80
-46z m1311 33 c0 -7 -97 -76 -108 -76 -5 0 -41 18 -78 40 l-69 40 128 0 c70 0
127 -2 127 -4z m-306 -131 c91 -57 174 -109 184 -114 16 -9 44 8 172 104 139
104 184 128 203 109 3 -4 -75 -71 -173 -150 l-179 -144 -221 146 c-121 80
-220 148 -220 150 0 2 16 4 35 4 27 0 72 -24 199 -105z m-52 -86 l258 -172 37
29 c21 15 118 93 217 171 155 124 182 142 205 137 37 -9 37 -9 -5 -46 -239
-210 -441 -377 -452 -373 -7 2 -140 96 -296 207 -172 123 -280 206 -273 210 7
4 21 8 32 8 11 0 135 -77 277 -171z"/>
</g>
</svg>
